<?xml version="1.0" encoding="UTF-8" standalone="no"?>
<svg
   height="48"
   viewBox="0 96 960 960"
   width="48"
   version="1.1"
   id="svg264"
   xmlns="http://www.w3.org/2000/svg"
   xmlns:svg="http://www.w3.org/2000/svg">
  <defs
     id="defs268" />
  <path
     d="M 796,935 533,672 Q 503,698 463.041,712.5 423.082,727 378,727 269.838,727 194.919,652 120,577 120,471 q 0,-106 75,-181 75,-75 181.5,-75 106.5,0 181,75 74.5,75 74.5,181.15 0,42.85 -14,82.85 -14,40 -42,75 L 840,891 Z M 377,667 q 81.25,0 138.125,-57.5 Q 572,552 572,471 572,390 515.125,332.5 458.25,275 377,275 294.917,275 237.458,332.5 180,390 180,471 180,552 237.458,609.5 294.917,667 377,667 Z"
     id="path262"
     style="fill:#ffffff" />
</svg>
